<svg width="23" height="23" viewBox="0 0 23 23" fill="none" xmlns="http://www.w3.org/2000/svg">
<path d="M11.5 2.07192C8.4295 2.07192 8.06533 2.08342 6.85304 2.139C5.54396 2.19842 4.32975 2.461 3.39538 3.39538C2.461 4.32975 2.19842 5.54396 2.139 6.85304C2.08342 8.06533 2.07192 8.4295 2.07192 11.5C2.07192 14.5705 2.08342 14.9347 2.139 16.147C2.19842 17.456 2.461 18.6702 3.39538 19.6046C4.32975 20.539 5.54396 20.8016 6.85304 20.861C8.06533 20.9166 8.4295 20.9281 11.5 20.9281C14.5705 20.9281 14.9347 20.9166 16.147 20.861C17.456 20.8016 18.6702 20.539 19.6046 19.6046C20.539 18.6702 20.8016 17.456 20.861 16.147C20.9166 14.9347 20.9281 14.5705 20.9281 11.5C20.9281 8.4295 20.9166 8.06533 20.861 6.85304C20.8016 5.54396 20.539 4.32975 19.6046 3.39538C18.6702 2.461 17.456 2.19842 16.147 2.139C14.9347 2.08342 14.5705 2.07192 11.5 2.07192ZM11.5 0C14.6232 0 15.0152 0.0134167 16.2418 0.069C18.1106 0.154292 19.7522 0.612375 21.0699 1.93008C22.3876 3.24779 22.8457 4.88942 22.931 6.75817C22.9866 7.98483 23 8.37679 23 11.5C23 14.6232 22.9866 15.0152 22.931 16.2418C22.8457 18.1106 22.3876 19.7522 21.0699 21.0699C19.7522 22.3876 18.1106 22.8457 16.2418 22.931C15.0152 22.9866 14.6232 23 11.5 23C8.37679 23 7.98483 22.9866 6.75817 22.931C4.88942 22.8457 3.24779 22.3876 1.93008 21.0699C0.612375 19.7522 0.154292 18.1106 0.069 16.2418C0.0134167 15.0152 0 14.6232 0 11.5C0 8.37679 0.0134167 7.98483 0.069 6.75817C0.154292 4.88942 0.612375 3.24779 1.93008 1.93008C3.24779 0.612375 4.88942 0.154292 6.75817 0.069C7.98483 0.0134167 8.37679 0 11.5 0ZM11.5 5.59475C14.7612 5.59475 17.4053 8.23879 17.4053 11.5C17.4053 14.7612 14.7612 17.4053 11.5 17.4053C8.23879 17.4053 5.59475 14.7612 5.59475 11.5C5.59475 8.23879 8.23879 5.59475 11.5 5.59475ZM11.5 15.3333C13.617 15.3333 15.3333 13.617 15.3333 11.5C15.3333 9.38304 13.617 7.66667 11.5 7.66667C9.38304 7.66667 7.66667 9.38304 7.66667 11.5C7.66667 13.617 9.38304 15.3333 11.5 15.3333ZM17.6391 6.74092C16.8769 6.74092 16.2591 6.12307 16.2591 5.36092C16.2591 4.59876 16.8769 3.98092 17.6391 3.98092C18.4012 3.98092 19.0191 4.59876 19.0191 5.36092C19.0191 6.12307 18.4012 6.74092 17.6391 6.74092Z" fill="white"/>
</svg>
