<svg width="23" height="24" viewBox="0 0 23 24" fill="none" xmlns="http://www.w3.org/2000/svg">
<path d="M11.5 2.162C8.4295 2.162 8.06533 2.174 6.85304 2.232C5.54396 2.294 4.32975 2.568 3.39538 3.543C2.461 4.518 2.19842 5.785 2.139 7.151C2.08342 8.416 2.07192 8.796 2.07192 12C2.07192 15.204 2.08342 15.584 2.139 16.849C2.19842 18.215 2.461 19.482 3.39538 20.457C4.32975 21.432 5.54396 21.706 6.85304 21.768C8.06533 21.826 8.4295 21.838 11.5 21.838C14.5705 21.838 14.9347 21.826 16.147 21.768C17.456 21.706 18.6702 21.432 19.6046 20.457C20.539 19.482 20.8016 18.215 20.861 16.849C20.9166 15.584 20.9281 15.204 20.9281 12C20.9281 8.796 20.9166 8.416 20.861 7.151C20.8016 5.785 20.539 4.518 19.6046 3.543C18.6702 2.568 17.456 2.294 16.147 2.232C14.9347 2.174 14.5705 2.162 11.5 2.162ZM11.5 0C14.6232 0 15.0152 0.014 16.2418 0.072C18.1106 0.161 19.7522 0.639 21.0699 2.014C22.3876 3.389 22.8457 5.102 22.931 7.052C22.9866 8.332 23 8.741 23 12C23 15.259 22.9866 15.668 22.931 16.948C22.8457 18.898 22.3876 20.611 21.0699 21.986C19.7522 23.361 18.1106 23.839 16.2418 23.928C15.0152 23.986 14.6232 24 11.5 24C8.37679 24 7.98483 23.986 6.75817 23.928C4.88942 23.839 3.24779 23.361 1.93008 21.986C0.612375 20.611 0.154292 18.898 0.069 16.948C0.0134167 15.668 0 15.259 0 12C0 8.741 0.0134167 8.332 0.069 7.052C0.154292 5.102 0.612375 3.389 1.93008 2.014C3.24779 0.639 4.88942 0.161 6.75817 0.072C7.98483 0.014 8.37679 0 11.5 0ZM11.5 5.838C14.7612 5.838 17.4053 8.597 17.4053 12C17.4053 15.403 14.7612 18.162 11.5 18.162C8.23879 18.162 5.59475 15.403 5.59475 12C5.59475 8.597 8.23879 5.838 11.5 5.838ZM11.5 16C13.617 16 15.3333 14.209 15.3333 12C15.3333 9.791 13.617 8 11.5 8C9.38304 8 7.66667 9.791 7.66667 12C7.66667 14.209 9.38304 16 11.5 16ZM17.6391 7.034C16.8769 7.034 16.2591 6.38929 16.2591 5.594C16.2591 4.79871 16.8769 4.154 17.6391 4.154C18.4012 4.154 19.0191 4.79871 19.0191 5.594C19.0191 6.38929 18.4012 7.034 17.6391 7.034Z" fill="#E5E5E5" fill-opacity="0.5"/>
</svg>
