<svg width="22" height="22" viewBox="0 0 22 22" fill="none" xmlns="http://www.w3.org/2000/svg">
<path d="M20.4133 0H1.58665C0.710327 0 0 0.710327 0 1.58665V20.4133C0 21.2897 0.710327 22 1.58665 22H20.4133C21.2897 22 22 21.2897 22 20.4133V1.58665C22 0.710327 21.2897 0 20.4133 0V0ZM7.80353 16.6289H5.12453V8.56908H7.80353V16.6289ZM6.46411 7.46851H6.44666C5.54767 7.46851 4.96625 6.84966 4.96625 6.07622C4.96625 5.28532 5.56546 4.68359 6.4819 4.68359C7.39835 4.68359 7.96231 5.28532 7.97977 6.07622C7.97977 6.84966 7.39835 7.46851 6.46411 7.46851ZM17.4634 16.6289H14.7848V12.3171C14.7848 11.2335 14.3969 10.4944 13.4276 10.4944C12.6875 10.4944 12.2468 10.993 12.0531 11.4742C11.9822 11.6464 11.965 11.8871 11.965 12.1279V16.6289H9.28612C9.28612 16.6289 9.3212 9.32523 9.28612 8.56908H11.965V9.71027C12.321 9.16107 12.9579 8.37991 14.3793 8.37991C16.1418 8.37991 17.4634 9.53185 17.4634 12.0074V16.6289Z" fill="white"/>
</svg>
