<svg width="28" height="26" viewBox="0 0 28 26" fill="none" xmlns="http://www.w3.org/2000/svg">
<path d="M24.2431 21.877C25.3072 21.7118 27.5089 21.3306 27.9301 20.3708C28.1424 19.8764 27.8391 19.4745 27.4517 19.4133V19.4121C23.7088 18.8023 22.0216 15.0068 21.9528 14.8451C20.9156 13.0039 23.7309 13.3135 24.8382 12.1908C25.9186 11.09 24.186 9.89802 23.1021 10.4039C22.6575 10.6107 21.9913 10.8509 21.5479 10.65C21.6529 8.90699 21.9435 6.01707 21.2306 4.43928C18.8329 -0.877381 11.7624 -1.06912 8.47684 2.01716C5.88783 4.44737 6.20518 6.94573 6.44787 10.65C5.64281 10.9976 4.84709 10.3069 4.26721 10.3069C3.65817 10.3069 2.94995 10.6985 2.83561 11.2887C2.69093 12.0637 3.54149 12.5627 4.27771 12.8503C5.53197 13.3377 6.72439 13.4821 6.06284 14.8127C6.05701 14.8231 6.05234 14.8335 6.04884 14.8439C5.11194 16.9623 3.06663 18.9986 0.548781 19.4098C0.142752 19.4756 -0.134934 19.8995 0.0680804 20.3673V20.3696C0.48461 21.3306 2.70727 21.7153 3.75618 21.877C4.08053 22.4776 3.83201 23.6638 4.83659 23.6638C5.22745 23.6638 5.9835 23.4109 6.9484 23.4109C8.35434 23.4109 8.83387 23.7147 9.96095 24.5024C11.1184 25.3121 12.3901 26.1033 13.9711 25.9889C15.6174 26.0906 16.8401 25.341 18.0395 24.5047L18.0407 24.5024C19.2098 23.6881 20.0452 23.0863 22.521 23.568C24.3528 23.9191 23.8184 22.6913 24.2431 21.877Z" fill="#777777"/>
</svg>
