<svg width="27" height="26" viewBox="0 0 27 26" fill="none" xmlns="http://www.w3.org/2000/svg">
<path d="M23.3773 21.877C24.4034 21.7118 26.5264 21.3306 26.9326 20.3708C27.1373 19.8764 26.8448 19.4745 26.4713 19.4133V19.4121C22.862 18.8023 21.2352 15.0068 21.1688 14.8451C20.1686 13.0039 22.8834 13.3135 23.9511 12.1908C24.9929 11.09 23.3222 9.89802 22.277 10.4039C21.8483 10.6107 21.2059 10.8509 20.7784 10.65C20.8796 8.90699 21.1598 6.01707 20.4723 4.43928C18.1603 -0.877381 11.3423 -1.06912 8.1741 2.01716C5.67755 4.44737 5.98357 6.94573 6.21759 10.65C5.44128 10.9976 4.67398 10.3069 4.11481 10.3069C3.52752 10.3069 2.8446 10.6985 2.73434 11.2887C2.59483 12.0637 3.41501 12.5627 4.12494 12.8503C5.3344 13.3377 6.48423 13.4821 5.84631 14.8127C5.84068 14.8231 5.83618 14.8335 5.83281 14.8439C4.92937 16.9623 2.9571 18.9986 0.529182 19.4098C0.137654 19.4756 -0.130115 19.8995 0.065649 20.3673V20.3696C0.467303 21.3306 2.61058 21.7153 3.62203 21.877C3.9348 22.4776 3.69516 23.6638 4.66385 23.6638C5.04075 23.6638 5.7698 23.4109 6.70025 23.4109C8.05597 23.4109 8.51838 23.7147 9.6052 24.5024C10.7213 25.3121 11.9476 26.1033 13.4721 25.9889C15.0596 26.0906 16.2387 25.341 17.3953 24.5047L17.3964 24.5024C18.5237 23.6881 19.3293 23.0863 21.7167 23.568C23.4831 23.9191 22.9678 22.6913 23.3773 21.877Z" fill="white"/>
</svg>
